<svg xmlns="http://www.w3.org/2000/svg" width="15.359" height="15.359" viewBox="0 0 15.359 15.359">
  <g id="Icon_feather-arrow-right" data-name="Icon feather-arrow-right" transform="translate(-13.605 9.815) rotate(-45)">
    <path id="Caminho_762" data-name="Caminho 762" d="M19.492,18.9H7.589a.9.9,0,1,1,0-1.8h11.9a.9.9,0,1,1,0,1.8Z" transform="translate(0 -4.46)" fill="#29323a"/>
    <path id="Caminho_763" data-name="Caminho 763" d="M18,20.481a.858.858,0,0,1-.636-.29,1.059,1.059,0,0,1,0-1.4l4.782-5.253L17.364,8.288a1.059,1.059,0,0,1,0-1.4.844.844,0,0,1,1.273,0l5.419,5.952a1.059,1.059,0,0,1,0,1.4l-5.419,5.952A.858.858,0,0,1,18,20.481Z" transform="translate(-3.838)" fill="#29323a"/>
  </g>
</svg>
