<svg xmlns="http://www.w3.org/2000/svg" width="21.145" height="14.5" viewBox="0 0 21.145 14.5">
  <g id="Grupo_7" data-name="Grupo 7" transform="translate(-137.75 -117.75)">
    <path id="Caminho_12" data-name="Caminho 12" d="M434.645,275H416a1.25,1.25,0,0,1,0-2.5h18.645a1.25,1.25,0,0,1,0,2.5Z" transform="translate(-277 -154.75)" fill="#fff"/>
    <path id="Caminho_13" data-name="Caminho 13" d="M434.645,275H416a1.25,1.25,0,0,1,0-2.5h18.645a1.25,1.25,0,0,1,0,2.5Z" transform="translate(-277 -148.75)" fill="#fff"/>
    <path id="Caminho_14" data-name="Caminho 14" d="M434.645,275H416a1.25,1.25,0,0,1,0-2.5h18.645a1.25,1.25,0,0,1,0,2.5Z" transform="translate(-277 -142.75)" fill="#fff"/>
  </g>
</svg>
