<svg id="Grupo_38" data-name="Grupo 38" xmlns="http://www.w3.org/2000/svg" xmlns:xlink="http://www.w3.org/1999/xlink" width="45.888" height="45.78" viewBox="0 0 45.888 45.78">
  <defs>
    <clipPath id="clip-path">
      <rect id="Retângulo_26" data-name="Retângulo 26" width="45.888" height="45.78" fill="none"/>
    </clipPath>
  </defs>
  <g id="Grupo_37" data-name="Grupo 37" clip-path="url(#clip-path)">
    <path id="Caminho_752" data-name="Caminho 752" d="M49,35.164a.721.721,0,0,1-.511-.211L41.52,27.98a.722.722,0,0,1,1.021-1.021l6.972,6.972A.722.722,0,0,1,49,35.164" transform="translate(-27.815 -18.011)" fill="#e7f239"/>
    <path id="Caminho_753" data-name="Caminho 753" d="M94.357,80.516a.721.721,0,0,1-.511-.211l-10.09-10.09a.722.722,0,0,1,1.021-1.021l10.09,10.09a.722.722,0,0,1-.51,1.232" transform="translate(-56.255 -46.45)" fill="#e7f239"/>
    <path id="Caminho_754" data-name="Caminho 754" d="M79.508,94.788A.721.721,0,0,1,79,94.577L68.882,84.461A.722.722,0,0,1,69.9,83.44L80.019,93.555a.722.722,0,0,1-.511,1.232" transform="translate(-46.24 -56.042)" fill="#e7f239"/>
    <path id="Caminho_755" data-name="Caminho 755" d="M34.8,50.083a.72.72,0,0,1-.51-.211L27.161,42.74a.722.722,0,0,1,1.021-1.021l7.132,7.131a.722.722,0,0,1-.511,1.232" transform="translate(-18.147 -27.95)" fill="#e7f239"/>
    <path id="Caminho_756" data-name="Caminho 756" d="M6.821,15.228A5.161,5.161,0,0,1,3.16,13.7L1.524,12.068A5.168,5.168,0,0,1,.137,7.217L.771,4.485a.722.722,0,0,1,1.213-.348L6.825,8.979l.577.033A1.527,1.527,0,0,0,9.013,7.4L8.98,6.824,4.138,1.983A.722.722,0,0,1,4.486.77L7.217.137a5.166,5.166,0,0,1,4.852,1.386L13.7,3.159A5.168,5.168,0,0,1,15.092,8.01l-.6,2.578a5.252,5.252,0,0,1-3.905,3.905l-2.577.6a5.256,5.256,0,0,1-1.191.137M1.883,6.078l-.34,1.465a3.733,3.733,0,0,0,1,3.5l1.636,1.636a3.734,3.734,0,0,0,3.5,1l2.577-.6a3.8,3.8,0,0,0,2.826-2.825l.6-2.577a3.734,3.734,0,0,0-1-3.5L11.048,2.543a3.734,3.734,0,0,0-3.5-1l-1.464.339L10.2,6a.719.719,0,0,1,.21.469l.049.851a2.969,2.969,0,0,1-3.135,3.135L6.468,10.4A.719.719,0,0,1,6,10.194Z" transform="translate(0 0)" fill="#e7f239"/>
    <path id="Caminho_757" data-name="Caminho 757" d="M105.807,112.781a4.545,4.545,0,0,1-3.222-1.341l-1.406-1.406a4.547,4.547,0,0,1-1.222-4.261l.51-2.212a4.6,4.6,0,0,1,3.427-3.427l2.212-.511a4.541,4.541,0,0,1,4.261,1.222l1.406,1.406a4.544,4.544,0,0,1,1.222,4.26l-.541,2.345a.722.722,0,0,1-1.229.332l-3.431-3.642-.179,0a1.4,1.4,0,0,0-1.141.489,1.5,1.5,0,0,0-.394,1.178l0,.026,3.472,3.685a.722.722,0,0,1-.363,1.2l-2.345.541a4.628,4.628,0,0,1-1.039.119m1.335-11.832a3.151,3.151,0,0,0-.711.081l-2.212.51a3.148,3.148,0,0,0-2.344,2.345l-.51,2.211a3.11,3.11,0,0,0,.836,2.916l1.406,1.406a3.109,3.109,0,0,0,2.916.836l1.119-.258-2.779-2.949a.724.724,0,0,1-.193-.425l-.026-.271a2.964,2.964,0,0,1,.77-2.3,3.045,3.045,0,0,1,2.226-.954l.483.008a.72.72,0,0,1,.513.227l2.715,2.882.238-1.03a3.108,3.108,0,0,0-.836-2.915l-1.406-1.406a3.107,3.107,0,0,0-2.2-.918" transform="translate(-67.227 -67.001)" fill="#e7f239"/>
    <path id="Caminho_758" data-name="Caminho 758" d="M4.481,68.783a2.622,2.622,0,0,1-1.87-.775l-1.28-1.28a2.646,2.646,0,0,1,.056-3.8L27.771,36.467a.722.722,0,0,1,1.023,1.019l-26.4,26.48A1.208,1.208,0,0,0,2,64.839a1.192,1.192,0,0,0,.352.869l1.28,1.28a1.127,1.127,0,0,0,.868.352,1.192,1.192,0,0,0,.857-.378L32.213,40.187a.722.722,0,0,1,1.019,1.023L6.392,67.968a2.613,2.613,0,0,1-1.872.815Z" transform="translate(-0.374 -24.412)" fill="#fff"/>
    <path id="Caminho_759" data-name="Caminho 759" d="M82.427,24.625a.719.719,0,0,1-.51-.212l-2.723-2.722a.722.722,0,0,1,0-1.021l.193-.192-.666-.729-3.2.155a.742.742,0,0,1-.5-.165l-4.648-3.85a.722.722,0,0,1-.233-.756l.859-2.99L68.057,9.193,64.244,7.134a.722.722,0,0,1-.026-1.256c5.59-3.325,12.678.215,12.976.366a.718.718,0,0,1,.183.133l5.844,5.844a.722.722,0,0,1,.207.43l.138,1.223,1.194,1.232.162-.162a.722.722,0,0,1,1.021,0l2.723,2.723a.722.722,0,0,1,0,1.021l-5.727,5.726a.719.719,0,0,1-.511.212m-1.7-3.444,1.7,1.7,4.706-4.706-1.7-1.7-.17.17a.812.812,0,0,1-.516.212.722.722,0,0,1-.513-.22L82.356,14.7a.721.721,0,0,1-.2-.422l-.138-1.216L76.441,7.485c-.767-.362-5.9-2.639-10.275-.953l2.67,1.441A.722.722,0,0,1,69,8.1l3.326,3.326a.721.721,0,0,1,.183.709l-.845,2.945,4.068,3.37,3.254-.158a.723.723,0,0,1,.568.234l1.361,1.489a.722.722,0,0,1-.023,1Z" transform="translate(-43.003 -3.003)" fill="#fff"/>
    <path id="Caminho_760" data-name="Caminho 760" d="M110.26,31.029a.722.722,0,0,1-.51-1.232l2.887-2.887a.722.722,0,0,1,1.021,1.021l-2.887,2.888a.721.721,0,0,1-.511.211" transform="translate(-73.758 -17.977)" fill="#fff"/>
    <path id="Caminho_761" data-name="Caminho 761" d="M95.526,16.3a.722.722,0,0,1-.51-1.232L97.9,12.177A.722.722,0,0,1,98.924,13.2l-2.887,2.888a.721.721,0,0,1-.511.211" transform="translate(-63.836 -8.057)" fill="#fff"/>
  </g>
</svg>
