<svg id="Grupo_35" data-name="Grupo 35" xmlns="http://www.w3.org/2000/svg" xmlns:xlink="http://www.w3.org/1999/xlink" width="46.03" height="46.028" viewBox="0 0 46.03 46.028">
  <defs>
    <clipPath id="clip-path">
      <rect id="Retângulo_25" data-name="Retângulo 25" width="46.03" height="46.028" fill="none"/>
    </clipPath>
  </defs>
  <g id="Grupo_34" data-name="Grupo 34" clip-path="url(#clip-path)">
    <path id="Caminho_738" data-name="Caminho 738" d="M34.529,107.147A19.268,19.268,0,0,1,17.062,95.909a.6.6,0,0,1,.834-.778,30.108,30.108,0,0,0,8.555,2.916.6.6,0,0,1,.447.377c1.788,4.709,4.641,7.521,7.63,7.521a.6.6,0,1,1,0,1.2M18.987,97.009a18.106,18.106,0,0,0,11.07,8.366A15.405,15.405,0,0,1,25.9,99.163a33.328,33.328,0,0,1-6.909-2.154" transform="translate(-11.581 -64.725)" fill="#fff"/>
    <path id="Caminho_739" data-name="Caminho 739" d="M21.131,34a.606.606,0,0,1-.141-.017,27.27,27.27,0,0,1-8.74-3.608.6.6,0,0,1-.262-.557A19.216,19.216,0,0,1,31.108,12.5a.6.6,0,1,1,0,1.2c-3.7,0-7.072,4.208-8.6,10.719v0a31.933,31.933,0,0,0-.82,7.294c0,.5.014,1.024.045,1.662a.6.6,0,0,1-.6.63m-7.908-4.423A25.816,25.816,0,0,0,20.5,32.624c-.01-.323-.015-.622-.015-.911a33.38,33.38,0,0,1,.727-7.016,20.261,20.261,0,0,1-5.417-2.471,17.931,17.931,0,0,0-2.572,7.357m3.24-8.357a19.286,19.286,0,0,0,5.026,2.3c1.076-4.168,2.922-7.407,5.158-9.267a18.048,18.048,0,0,0-10.184,6.968" transform="translate(-8.16 -8.509)" fill="#fff"/>
    <path id="Caminho_740" data-name="Caminho 740" d="M80.612,34a.6.6,0,0,1-.6-.63c.031-.637.045-1.165.045-1.662a31.965,31.965,0,0,0-.82-7.3h0q-.024-.1-.05-.208a.6.6,0,0,1,.922-.64,19.465,19.465,0,0,0,5.175-2.345A18,18,0,0,0,75.12,14.263a14.649,14.649,0,0,1,3.789,5.353.6.6,0,0,1-1.1.489C76,16.033,73.383,13.7,70.634,13.7h0a.6.6,0,1,1,0-1.2A19.2,19.2,0,0,1,88.3,24.154a.6.6,0,0,1-1.105.473,18.122,18.122,0,0,0-1.249-2.4A20.266,20.266,0,0,1,80.532,24.7a33.38,33.38,0,0,1,.727,7.016c0,.289,0,.588-.014.911a25.814,25.814,0,0,0,7.276-3.042c-.033-.281-.073-.563-.119-.84a.6.6,0,0,1,1.186-.2c.07.422.127.852.168,1.279a.6.6,0,0,1-.262.557,27.274,27.274,0,0,1-8.741,3.608.6.6,0,0,1-.141.017" transform="translate(-47.686 -8.509)" fill="#fff"/>
    <path id="Caminho_741" data-name="Caminho 741" d="M22.72,78.839a.608.608,0,0,1-.115-.011,31.326,31.326,0,0,1-8.9-3.041.6.6,0,0,1-.259-.277,19.053,19.053,0,0,1-1.75-7.98c0-.605.032-1.241.1-1.889a.6.6,0,0,1,.934-.44,26.073,26.073,0,0,0,8.35,3.436.6.6,0,0,1,.46.555,29.216,29.216,0,0,0,1.748,8.833.6.6,0,0,1-.562.814m-8.265-4.012a29.4,29.4,0,0,0,7.341,2.6A30.992,30.992,0,0,1,20.357,69.7a28.239,28.239,0,0,1-7.443-2.953c-.012.265-.018.526-.018.785a17.84,17.84,0,0,0,1.559,7.3" transform="translate(-7.962 -44.326)" fill="#fff"/>
    <path id="Caminho_742" data-name="Caminho 742" d="M70.635,107.146a.6.6,0,1,1,0-1.2c2.989,0,5.841-2.811,7.63-7.52a.6.6,0,0,1,.447-.377,30.121,30.121,0,0,0,8.556-2.916.6.6,0,0,1,.834.778,19.267,19.267,0,0,1-17.467,11.238m8.632-7.984a15.4,15.4,0,0,1-4.161,6.212,18.1,18.1,0,0,0,11.071-8.366,33.35,33.35,0,0,1-6.91,2.154" transform="translate(-47.686 -64.725)" fill="#fff"/>
    <path id="Caminho_743" data-name="Caminho 743" d="M96.306,78.839a.6.6,0,0,1-.562-.814,29.214,29.214,0,0,0,1.748-8.833.6.6,0,0,1,.459-.555A26.076,26.076,0,0,0,106.3,65.2a.6.6,0,0,1,.934.44c.063.648.1,1.283.1,1.889a19.055,19.055,0,0,1-1.75,7.979.606.606,0,0,1-.259.277,31.319,31.319,0,0,1-8.9,3.041.608.608,0,0,1-.114.011M98.668,69.7a31.006,31.006,0,0,1-1.439,7.733,29.389,29.389,0,0,0,7.341-2.6,17.839,17.839,0,0,0,1.559-7.3c0-.26-.006-.52-.018-.785A28.24,28.24,0,0,1,98.668,69.7" transform="translate(-65.166 -44.326)" fill="#fff"/>
    <path id="Caminho_744" data-name="Caminho 744" d="M49.344,87.134a43.73,43.73,0,0,1-8.306-.791.6.6,0,0,1-.447-.377,30.425,30.425,0,0,1-1.825-9.2.6.6,0,0,1,.741-.614,42.054,42.054,0,0,0,9.837,1.133.6.6,0,0,1,.6.6v8.647a.6.6,0,0,1-.6.6M41.6,85.226a42.518,42.518,0,0,0,7.145.7V78.483a43.378,43.378,0,0,1-8.728-.981A29.056,29.056,0,0,0,41.6,85.226" transform="translate(-26.395 -51.841)" fill="#fff"/>
    <path id="Caminho_745" data-name="Caminho 745" d="M49.245,59.016A43.269,43.269,0,0,1,39.126,57.85a.6.6,0,0,1-.459-.556c-.032-.658-.047-1.2-.047-1.72A33.155,33.155,0,0,1,39.472,48a.6.6,0,0,1,.75-.441,33.416,33.416,0,0,0,9.023,1.2.6.6,0,0,1,.6.6v9.047a.6.6,0,0,1-.6.6m-9.4-2.232a42.04,42.04,0,0,0,8.8,1.026V49.964a34.771,34.771,0,0,1-8.137-1.077,32.194,32.194,0,0,0-.684,6.688c0,.374.008.766.026,1.21" transform="translate(-26.297 -32.371)" fill="#fff"/>
    <path id="Caminho_746" data-name="Caminho 746" d="M53.155,113.5c-3.508,0-6.781-3.1-8.753-8.3a.6.6,0,0,1,.676-.8,42.5,42.5,0,0,0,8.077.769.6.6,0,0,1,.6.6V112.9a.6.6,0,0,1-.6.6m-7.222-7.724c1.667,3.807,4.07,6.162,6.621,6.483v-5.892a43.815,43.815,0,0,1-6.621-.591" transform="translate(-30.207 -71.08)" fill="#fff"/>
    <path id="Caminho_747" data-name="Caminho 747" d="M70.634,87.133a.6.6,0,0,1-.6-.6V77.885a.6.6,0,0,1,.6-.6,42.059,42.059,0,0,0,9.837-1.133.6.6,0,0,1,.741.614,30.425,30.425,0,0,1-1.825,9.2.6.6,0,0,1-.447.377,43.7,43.7,0,0,1-8.306.791m.6-8.651v7.444a42.448,42.448,0,0,0,7.145-.7A29.04,29.04,0,0,0,79.964,77.5a43.376,43.376,0,0,1-8.728.981" transform="translate(-47.686 -51.84)" fill="#fff"/>
    <path id="Caminho_748" data-name="Caminho 748" d="M70.634,113.5a.6.6,0,0,1-.6-.6v-7.129a.6.6,0,0,1,.6-.6,42.51,42.51,0,0,0,8.077-.769.6.6,0,0,1,.676.8c-1.972,5.195-5.245,8.3-8.753,8.3m.6-7.133v5.892c2.551-.322,4.954-2.676,6.621-6.483a43.859,43.859,0,0,1-6.621.591" transform="translate(-47.686 -71.08)" fill="#fff"/>
    <path id="Caminho_749" data-name="Caminho 749" d="M70.634,59.017a.6.6,0,0,1-.6-.6V49.369a.6.6,0,0,1,.6-.6,33.411,33.411,0,0,0,9.023-1.2.6.6,0,0,1,.75.441,33.156,33.156,0,0,1,.852,7.571c0,.517-.015,1.063-.047,1.72a.6.6,0,0,1-.46.555,43.269,43.269,0,0,1-10.119,1.166m.6-9.052v7.846a42.04,42.04,0,0,0,8.8-1.026c.017-.443.025-.835.025-1.21a32.213,32.213,0,0,0-.684-6.688,34.805,34.805,0,0,1-8.138,1.077" transform="translate(-47.686 -32.371)" fill="#fff"/>
    <path id="Caminho_750" data-name="Caminho 750" d="M51.03,26.108a34.635,34.635,0,0,1-9.352-1.25.6.6,0,0,1-.421-.716c1.662-7.075,5.5-11.646,9.773-11.646S59.14,17.067,60.8,24.142a.6.6,0,0,1-.421.716,34.632,34.632,0,0,1-9.352,1.25m.6-12.031V24.9a33.552,33.552,0,0,0,7.863-1.046c-1.517-5.91-4.582-9.793-7.979-10.132a.6.6,0,0,1,.116.354m-9.065,9.778A33.552,33.552,0,0,0,50.429,24.9V14.077a.6.6,0,0,1,.116-.354c-3.4.339-6.462,4.222-7.979,10.132" transform="translate(-28.081 -8.509)" fill="#fff"/>
    <path id="Caminho_751" data-name="Caminho 751" d="M23.015,46.028a22.883,22.883,0,0,1-8.795-1.74.6.6,0,1,1,.46-1.111,21.838,21.838,0,0,0,28.4-11.605.6.6,0,0,1,1.106.472A23,23,0,0,1,23.015,46.028M10.27,42.055a.6.6,0,0,1-.341-.107A23.016,23.016,0,0,1,22.759,0h.007a.6.6,0,0,1,.006,1.2A21.814,21.814,0,0,0,10.613,40.96a.6.6,0,0,1-.343,1.1m34.758-14.2a.6.6,0,0,1-.591-.714,21.841,21.841,0,0,0-17.055-25.5A.6.6,0,1,1,27.622.46a23.044,23.044,0,0,1,18,26.909.6.6,0,0,1-.59.488" fill="#e7f239"/>
  </g>
</svg>
