<svg id="Grupo_28" data-name="Grupo 28" xmlns="http://www.w3.org/2000/svg" xmlns:xlink="http://www.w3.org/1999/xlink" width="51.806" height="49.615" viewBox="0 0 51.806 49.615">
  <defs>
    <clipPath id="clip-path">
      <rect id="Retângulo_23" data-name="Retângulo 23" width="51.806" height="49.615" fill="none"/>
    </clipPath>
  </defs>
  <g id="Grupo_27" data-name="Grupo 27" clip-path="url(#clip-path)">
    <path id="Caminho_713" data-name="Caminho 713" d="M62.5,5.442a.7.7,0,0,1-.7-.7v-1.1a.7.7,0,0,1,1.4,0v1.1a.7.7,0,0,1-.7.7" transform="translate(-38.784 -1.847)" fill="#fff"/>
    <path id="Caminho_714" data-name="Caminho 714" d="M27.65,57.065H3.988A3.993,3.993,0,0,1,0,53.076V21.3a.7.7,0,0,1,.7-.7H8.243a.7.7,0,1,1,0,1.4H1.4V53.076a2.589,2.589,0,0,0,2.586,2.586H27.65a.7.7,0,0,1,0,1.4m19.072-18.32a.7.7,0,0,1-.7-.7V22H14.256a.7.7,0,1,1,0-1.4H46.722a.7.7,0,0,1,.7.7V38.043a.7.7,0,0,1-.7.7" transform="translate(0 -12.929)" fill="#fff"/>
    <path id="Caminho_715" data-name="Caminho 715" d="M46.722,10.92H.7a.7.7,0,0,1-.7-.7V6.931A3.993,3.993,0,0,1,3.989,2.943H43.435a3.993,3.993,0,0,1,3.988,3.988v3.287a.7.7,0,0,1-.7.7M1.4,9.517H46.021V6.931a2.589,2.589,0,0,0-2.586-2.586H3.989A2.589,2.589,0,0,0,1.4,6.931Z" transform="translate(0 -1.847)" fill="#fff"/>
    <path id="Caminho_716" data-name="Caminho 716" d="M88.166,93.94q-.243,0-.484-.01a.7.7,0,0,1,.058-1.4q.212.008.426.009A10.253,10.253,0,1,0,82.459,90.8a.7.7,0,1,1-.782,1.165,11.66,11.66,0,1,1,6.488,1.971" transform="translate(-48.018 -44.325)" fill="#e7f239"/>
    <path id="Caminho_717" data-name="Caminho 717" d="M106.634,90.37a.7.7,0,0,1-.7-.7V83.095a.7.7,0,1,1,1.4,0v4.881l.994-.994a.7.7,0,1,1,.992.992l-2.192,2.191a.7.7,0,0,1-.5.206" transform="translate(-66.487 -51.713)" fill="#e7f239"/>
    <path id="Caminho_718" data-name="Caminho 718" d="M13.335,58.411V57.076a2.077,2.077,0,0,1,.414-1.2,5.352,5.352,0,0,1,1-1.075l1.315-.953a6.537,6.537,0,0,0,1.1-1.022,1.673,1.673,0,0,0,.455-1.077,1.272,1.272,0,0,0-.323-.856,1.2,1.2,0,0,0-.958-.373,1.27,1.27,0,0,0-.882.31,1.19,1.19,0,0,0-.343.931.6.6,0,0,1-.25.473,1.024,1.024,0,0,1-.668.2c-.531,0-.8-.319-.8-.959a2.228,2.228,0,0,1,.87-1.823,3.187,3.187,0,0,1,2.055-.7,3.307,3.307,0,0,1,2.163.748,2.441,2.441,0,0,1,.913,1.988,2.912,2.912,0,0,1-.447,1.554,4.609,4.609,0,0,1-1.092,1.229q-.646.5-1.285.932a8.24,8.24,0,0,0-1.087.856,1.191,1.191,0,0,0-.447.815v.331H18.87a.492.492,0,0,1,.392.226.868.868,0,0,1,.172.541.944.944,0,0,1-.168.555.472.472,0,0,1-.384.24H14.1a.933.933,0,0,1-.511-.165.475.475,0,0,1-.255-.4" transform="translate(-8.369 -30.728)" fill="#fff"/>
    <path id="Caminho_719" data-name="Caminho 719" d="M32.888,56.107a.725.725,0,0,1,.1-.353l3.247-6.333a.768.768,0,0,1,.754-.462,1.085,1.085,0,0,1,.582.2.577.577,0,0,1,.309.487.543.543,0,0,1-.069.233L35.176,55.14h1.6V53.632a.477.477,0,0,1,.26-.438,1.391,1.391,0,0,1,1.26,0,.478.478,0,0,1,.261.438V55.14H39.2a.467.467,0,0,1,.411.232,1,1,0,0,1,.15.555.9.9,0,0,1-.171.536.485.485,0,0,1-.391.239h-.643V58.39a.482.482,0,0,1-.261.429,1.328,1.328,0,0,1-1.253,0,.479.479,0,0,1-.267-.429V56.7H33.49a.607.607,0,0,1-.432-.161.568.568,0,0,1-.171-.433" transform="translate(-20.642 -30.728)" fill="#fff"/>
    <path id="Caminho_720" data-name="Caminho 720" d="M72.9,51.631v-2.11a.494.494,0,0,1,.24-.384.887.887,0,0,1,.541-.178h4.866a.919.919,0,0,1,.519.178.488.488,0,0,1,.261.384v1.562a2.642,2.642,0,0,1-.342,1.042l-3.467,6.66a.522.522,0,0,1-.508.261,1.257,1.257,0,0,1-.78-.261.77.77,0,0,1-.343-.63.6.6,0,0,1,.082-.315l3.577-6.413v-.9H74.683v1.11a.479.479,0,0,1-.273.411,1.205,1.205,0,0,1-.631.164,1.124,1.124,0,0,1-.623-.164.483.483,0,0,1-.253-.411" transform="translate(-45.756 -30.728)" fill="#fff"/>
    <path id="Caminho_721" data-name="Caminho 721" d="M56.611,55.342a.691.691,0,0,1-.123-.011.7.7,0,0,1-.569-.813l3.287-18.627a.7.7,0,0,1,1.382.244L57.3,54.762a.7.7,0,0,1-.69.58" transform="translate(-35.09 -22.162)" fill="#fff"/>
    <path id="Caminho_722" data-name="Caminho 722" d="M9.53,3.594a.7.7,0,0,1-.7-.7V.7a.7.7,0,1,1,1.4,0V2.893a.7.7,0,0,1-.7.7" transform="translate(-5.541)" fill="#fff"/>
    <path id="Caminho_723" data-name="Caminho 723" d="M21.3,3.594a.7.7,0,0,1-.7-.7V.7A.7.7,0,0,1,22,.7V2.893a.7.7,0,0,1-.7.7" transform="translate(-12.928)" fill="#fff"/>
    <path id="Caminho_724" data-name="Caminho 724" d="M33.07,3.594a.7.7,0,0,1-.7-.7V.7a.7.7,0,1,1,1.4,0V2.893a.7.7,0,0,1-.7.7" transform="translate(-20.315)" fill="#fff"/>
    <path id="Caminho_725" data-name="Caminho 725" d="M44.841,3.594a.7.7,0,0,1-.7-.7V.7a.7.7,0,0,1,1.4,0V2.893a.7.7,0,0,1-.7.7" transform="translate(-27.703)" fill="#fff"/>
    <path id="Caminho_726" data-name="Caminho 726" d="M80.152,3.594a.7.7,0,0,1-.7-.7V.7a.7.7,0,0,1,1.4,0V2.893a.7.7,0,0,1-.7.7" transform="translate(-49.865)" fill="#fff"/>
    <path id="Caminho_727" data-name="Caminho 727" d="M91.922,3.594a.7.7,0,0,1-.7-.7V.7a.7.7,0,1,1,1.4,0V2.893a.7.7,0,0,1-.7.7" transform="translate(-57.253)" fill="#fff"/>
    <path id="Caminho_728" data-name="Caminho 728" d="M103.692,3.594a.7.7,0,0,1-.7-.7V.7a.7.7,0,1,1,1.4,0V2.893a.7.7,0,0,1-.7.7" transform="translate(-64.64)" fill="#fff"/>
    <path id="Caminho_729" data-name="Caminho 729" d="M115.462,3.594a.7.7,0,0,1-.7-.7V.7a.7.7,0,0,1,1.4,0V2.893a.7.7,0,0,1-.7.7" transform="translate(-72.027)" fill="#fff"/>
  </g>
</svg>
