<svg xmlns="http://www.w3.org/2000/svg" xmlns:xlink="http://www.w3.org/1999/xlink" width="444" height="104.697" viewBox="0 0 444 104.697">
  <defs>
    <clipPath id="clip-path">
      <rect id="Retângulo_24" data-name="Retângulo 24" width="45.888" height="43.947" fill="none"/>
    </clipPath>
  </defs>
  <g id="Grupo_30" data-name="Grupo 30" transform="translate(-139 -2075)">
    <g id="Caminho_762" data-name="Caminho 762" transform="translate(139 2075.697)" fill="#2d3740">
      <path d="M 0.5 103.4991455078125 L 0.5 0.4991903007030487 L 443.5 -0.1962398737668991 L 443.5 82.24015808105469 L 433.9879455566406 91.6568603515625 L 422.6698303222656 102.8033142089844 L 0.5 103.4991455078125 Z" stroke="none"/>
      <path d="M 443 0.3045425415039062 L 1 0.9984054565429688 L 1 102.9983215332031 L 422.4645690917969 102.3036499023438 L 433.6361694335938 91.30152893066406 L 443 82.03155517578125 L 443 0.3045425415039062 M 444 -0.6970291137695312 L 444 82.44875335693359 L 434.3397216796875 92.01219940185547 L 422.875 103.3029708862305 L 0 103.9999771118164 L 0 -2.288818359375e-05 L 444 -0.6970291137695312 Z" stroke="none" fill="#34404a"/>
    </g>
    <text id="Nullam_dapibus" data-name="Nullam dapibus" transform="translate(225 2122.349)" fill="#fff" font-size="16" font-family="AlbertSans-Bold, Albert Sans" font-weight="700"><tspan x="0" y="0">Nullam dapibus</tspan></text>
    <text id="Mauris_pharetra_lacus_landit_dictum_maximus" data-name="Mauris pharetra, lacus landit dictum maximus" transform="translate(225 2143.349)" fill="#7d8d9b" font-size="14" font-family="AlbertSans-Regular, Albert Sans"><tspan x="0" y="0">Mauris pharetra, lacus landit dictum maximus</tspan></text>
    <g id="Grupo_32" data-name="Grupo 32" transform="translate(163 2105.375)">
      <g id="Grupo_31" data-name="Grupo 31" clip-path="url(#clip-path)">
        <path id="Caminho_730" data-name="Caminho 730" d="M42.572,21.707a.621.621,0,0,1-.621-.621V15.216a.621.621,0,0,1,1.243,0v5.869a.621.621,0,0,1-.621.621M21.219,19.275a.622.622,0,0,1-.621-.621V3.533A3.537,3.537,0,0,1,24.131,0H39.66a3.537,3.537,0,0,1,3.533,3.533V9.89a.621.621,0,0,1-1.243,0V3.533a2.293,2.293,0,0,0-2.29-2.29H24.131a2.293,2.293,0,0,0-2.29,2.29V18.654a.622.622,0,0,1-.621.621" transform="translate(-13.804)" fill="#fff"/>
        <path id="Caminho_731" data-name="Caminho 731" d="M55.97,113.061H49.31a.621.621,0,1,1,0-1.243H55.97a.621.621,0,1,1,0,1.243" transform="translate(-32.63 -74.937)" fill="#fff"/>
        <path id="Caminho_732" data-name="Caminho 732" d="M43.436,5.125H36.13a2.549,2.549,0,0,1-2.292-1.416L32.434.9a.621.621,0,0,1,.556-.9H46.577a.622.622,0,0,1,.556.9l-1.4,2.809a2.548,2.548,0,0,1-2.292,1.416M33.995,1.243l.955,1.91a1.313,1.313,0,0,0,1.18.73h7.306a1.313,1.313,0,0,0,1.18-.73l.955-1.91Z" transform="translate(-21.692)" fill="#fff"/>
        <path id="Caminho_733" data-name="Caminho 733" d="M47.8,50.821a.622.622,0,0,1-.372-1.119,1.309,1.309,0,0,0,.532-1.059V46.7a1.321,1.321,0,0,0-1.319-1.32H40.816A1.321,1.321,0,0,0,39.5,46.7v1.941a1.308,1.308,0,0,0,.249.771.621.621,0,1,1-1.007.728,2.543,2.543,0,0,1-.484-1.5V46.7a2.565,2.565,0,0,1,2.562-2.562H46.64A2.565,2.565,0,0,1,49.2,46.7v1.941A2.577,2.577,0,0,1,48.171,50.7a.617.617,0,0,1-.371.123" transform="translate(-25.637 -29.581)" fill="#fff"/>
        <path id="Caminho_734" data-name="Caminho 734" d="M4.89,72.851a.62.62,0,0,1-.441-.183C4.268,72.485,0,68.151,0,64.655V51.726a7.408,7.408,0,0,1,2.345-5.413l3.041-3a.621.621,0,1,1,.873.884L3.212,47.2l-.014.014a6.16,6.16,0,0,0-1.955,4.508V64.655c0,2.99,4.047,7.1,4.088,7.137a.621.621,0,0,1-.441,1.059m9.923,0a.622.622,0,0,1-.621-.621V66.552a6.083,6.083,0,0,0-1.745-4.291l-1.9-1.932a5.223,5.223,0,0,1-1.5-3.684V51.6a1.57,1.57,0,0,0-.514-1.165,1.482,1.482,0,0,0-1.157-.379,1.335,1.335,0,0,0-.561.195.621.621,0,1,1-.645-1.062,2.569,2.569,0,0,1,1.08-.369,2.715,2.715,0,0,1,2.116.693A2.816,2.816,0,0,1,10.29,51.6v5.05a3.988,3.988,0,0,0,1.144,2.813l1.9,1.932a7.318,7.318,0,0,1,2.1,5.162V72.23a.622.622,0,0,1-.621.621" transform="translate(0 -28.904)" fill="#e7f239"/>
        <path id="Caminho_735" data-name="Caminho 735" d="M15.143,72.753a.622.622,0,0,1-.622-.621V63.577a2.829,2.829,0,0,1,1.326-2.235.621.621,0,1,1,.757.986c-.573.44-.84.837-.84,1.25v8.555a.622.622,0,0,1-.621.621" transform="translate(-9.732 -41.023)" fill="#e7f239"/>
        <path id="Caminho_736" data-name="Caminho 736" d="M65.287,80.379a.619.619,0,0,1-.439-.182l-.9-.9a1.339,1.339,0,0,0-1.164-.362,7.7,7.7,0,0,1-7.26-2.589c-.182-.182-.34-.339-.472-.453a.639.639,0,0,1-.062-.061l-4.911-5.6c-1.189-1.2-1.415-2.179-.672-2.923a3.849,3.849,0,0,1,2.063-1.176L44.1,58.759a2.537,2.537,0,0,1-.489-3.318,2.566,2.566,0,0,1,1.878-1.069,2.628,2.628,0,0,1,2.08.768l6.588,6.588a2.527,2.527,0,0,1,3.47-1.745,2.566,2.566,0,0,1,1.058-1.773,2.592,2.592,0,0,1,2.485-.242,2.567,2.567,0,0,1,1.056-1.761,2.693,2.693,0,0,1,3.425.384l5.727,5.727c1.321,1.321,2.117,5.108,2.544,7.143.019.091.037.178.055.26l.677.677a.621.621,0,1,1-.879.879l-.807-.807a.623.623,0,0,1-.168-.309c-.028-.132-.06-.281-.094-.444-.343-1.634-1.147-5.46-2.207-6.519l-5.727-5.727a1.442,1.442,0,0,0-1.823-.251,1.308,1.308,0,0,0-.553.97,1.391,1.391,0,0,0,.408,1.1.621.621,0,0,1-.879.879l-.694-.694A1.442,1.442,0,0,0,59.4,59.22a1.309,1.309,0,0,0-.553.97,1.392,1.392,0,0,0,.407,1.1.621.621,0,0,1-.879.878l-.673-.673a1.442,1.442,0,0,0-1.823-.251,1.309,1.309,0,0,0-.553.97,1.392,1.392,0,0,0,.408,1.1.621.621,0,0,1-.879.879l-8.173-8.173a1.392,1.392,0,0,0-1.1-.408,1.308,1.308,0,0,0-.97.553,1.362,1.362,0,0,0,.358,1.716L54.4,67.308a.621.621,0,1,1-.879.879c-1.135-1.135-2.1-1.135-3.239,0-.092.092-.126.368.686,1.18L51,69.4l4.9,5.584c.156.137.319.3.5.485a6.432,6.432,0,0,0,6.18,2.244,2.581,2.581,0,0,1,2.245.709l.9.9a.621.621,0,0,1-.439,1.061" transform="translate(-28.942 -36.432)" fill="#e7f239"/>
        <path id="Caminho_737" data-name="Caminho 737" d="M76.658,96.363a.619.619,0,0,1-.439-.182L74.16,94.122a.621.621,0,0,1,.879-.879L77.1,95.3a.621.621,0,0,1-.439,1.061" transform="translate(-49.578 -62.367)" fill="#e7f239"/>
      </g>
    </g>
  </g>
</svg>
