<svg xmlns="http://www.w3.org/2000/svg" width="19.987" height="22.25" viewBox="0 0 19.987 22.25">
  <g id="Icon_feather-user" data-name="Icon feather-user" transform="translate(-4.75 -3.25)">
    <path id="Caminho_12" data-name="Caminho 12" d="M23.794,29.924a.943.943,0,0,1-.943-.943V26.718a3.587,3.587,0,0,0-3.583-3.583H10.218a3.583,3.583,0,0,0-3.583,3.583v2.263a.943.943,0,1,1-1.886,0V26.718a5.468,5.468,0,0,1,5.468-5.468h9.051a5.474,5.474,0,0,1,5.468,5.468v2.263A.943.943,0,0,1,23.794,29.924Z" transform="translate(0 -4.424)" fill="#fff"/>
    <path id="Caminho_13" data-name="Caminho 13" d="M16.218,3.25A5.468,5.468,0,1,1,10.75,8.718,5.474,5.474,0,0,1,16.218,3.25Zm0,9.051a3.583,3.583,0,1,0-3.583-3.583A3.587,3.587,0,0,0,16.218,12.3Z" transform="translate(-1.475)" fill="#fff"/>
  </g>
</svg>
